<?xml version="1.0" standalone="no"?>
<!DOCTYPE svg PUBLIC "-//W3C//DTD SVG 1.1//EN"
  "http://www.w3.org/Graphics/SVG/1.1/DTD/svg11.dtd">
<svg xmlns="http://www.w3.org/2000/svg" version="1.1"
     width="1103px" height="1097px" viewBox="-15 -437 1103 1117">
  <defs>
    <style type="text/css"><![CDATA[
      .markmap-node {
        cursor: pointer;
      }

      .markmap-node-circle {
        fill: #fff;
        stroke-width: 1.5px;
      }

      .markmap-node-text {
        fill:  #000;
        font: 10px sans-serif;
      }

      .markmap-link {
        fill: none;
      }
    ]]></style>
  </defs>
  <g><path class="markmap-link" stroke="#929292" stroke-width="1" d="M675.1015625,640C705.1015625,640 705.1015625,615 735.1015625,615"></path><path class="markmap-link" stroke="#929292" stroke-width="1" d="M675.1015625,640C705.1015625,640 705.1015625,640 735.1015625,640"></path><path class="markmap-link" stroke="#929292" stroke-width="1" d="M675.1015625,640C705.1015625,640 705.1015625,665 735.1015625,665"></path><path class="markmap-link" stroke="#929292" stroke-width="1" d="M670.6484375,547.5C700.6484375,547.5 700.6484375,510 730.6484375,510"></path><path class="markmap-link" stroke="#929292" stroke-width="1" d="M670.6484375,547.5C700.6484375,547.5 700.6484375,535 730.6484375,535"></path><path class="markmap-link" stroke="#929292" stroke-width="1" d="M670.6484375,547.5C700.6484375,547.5 700.6484375,560 730.6484375,560"></path><path class="markmap-link" stroke="#929292" stroke-width="1" d="M670.6484375,547.5C700.6484375,547.5 700.6484375,585 730.6484375,585"></path><path class="markmap-link" stroke="#929292" stroke-width="1" d="M498.279296875,556.25C528.279296875,556.25 528.279296875,472.5 558.279296875,472.5"></path><path class="markmap-link" stroke="#929292" stroke-width="1" d="M498.279296875,556.25C528.279296875,556.25 528.279296875,497.5 558.279296875,497.5"></path><path class="markmap-link" stroke="#929292" stroke-width="1" d="M498.279296875,556.25C528.279296875,556.25 528.279296875,522.5 558.279296875,522.5"></path><path class="markmap-link" stroke="#929292" stroke-width="1" d="M498.279296875,556.25C528.279296875,556.25 528.279296875,547.5 558.279296875,547.5"></path><path class="markmap-link" stroke="#929292" stroke-width="1" d="M498.279296875,556.25C528.279296875,556.25 528.279296875,640 558.279296875,640"></path><path class="markmap-link" stroke="#929292" stroke-width="1" d="M459.9248046875,430C489.9248046875,430 489.9248046875,417.5 519.9248046875,417.5"></path><path class="markmap-link" stroke="#929292" stroke-width="1" d="M459.9248046875,430C489.9248046875,430 489.9248046875,442.5 519.9248046875,442.5"></path><path class="markmap-link" stroke="#929292" stroke-width="1" d="M804.0322265625,387.5C834.0322265625,387.5 834.0322265625,362.5 864.0322265625,362.5"></path><path class="markmap-link" stroke="#929292" stroke-width="1" d="M804.0322265625,387.5C834.0322265625,387.5 834.0322265625,387.5 864.0322265625,387.5"></path><path class="markmap-link" stroke="#929292" stroke-width="1" d="M804.0322265625,387.5C834.0322265625,387.5 834.0322265625,412.5 864.0322265625,412.5"></path><path class="markmap-link" stroke="#929292" stroke-width="1" d="M747.357421875,295C777.357421875,295 777.357421875,257.5 807.357421875,257.5"></path><path class="markmap-link" stroke="#929292" stroke-width="1" d="M747.357421875,295C777.357421875,295 777.357421875,282.5 807.357421875,282.5"></path><path class="markmap-link" stroke="#929292" stroke-width="1" d="M747.357421875,295C777.357421875,295 777.357421875,307.5 807.357421875,307.5"></path><path class="markmap-link" stroke="#929292" stroke-width="1" d="M747.357421875,295C777.357421875,295 777.357421875,332.5 807.357421875,332.5"></path><path class="markmap-link" stroke="#929292" stroke-width="1" d="M805.1650390625,190C835.1650390625,190 835.1650390625,152.5 865.1650390625,152.5"></path><path class="markmap-link" stroke="#929292" stroke-width="1" d="M805.1650390625,190C835.1650390625,190 835.1650390625,177.5 865.1650390625,177.5"></path><path class="markmap-link" stroke="#929292" stroke-width="1" d="M805.1650390625,190C835.1650390625,190 835.1650390625,202.5 865.1650390625,202.5"></path><path class="markmap-link" stroke="#929292" stroke-width="1" d="M805.1650390625,190C835.1650390625,190 835.1650390625,227.5 865.1650390625,227.5"></path><path class="markmap-link" stroke="#929292" stroke-width="1" d="M776.2490234375,110C806.2490234375,110 806.2490234375,97.5 836.2490234375,97.5"></path><path class="markmap-link" stroke="#929292" stroke-width="1" d="M776.2490234375,110C806.2490234375,110 806.2490234375,122.5 836.2490234375,122.5"></path><path class="markmap-link" stroke="#929292" stroke-width="1" d="M531.6240234375,248.75C561.6240234375,248.75 561.6240234375,110 591.6240234375,110"></path><path class="markmap-link" stroke="#929292" stroke-width="1" d="M531.6240234375,248.75C561.6240234375,248.75 561.6240234375,190 591.6240234375,190"></path><path class="markmap-link" stroke="#929292" stroke-width="1" d="M531.6240234375,248.75C561.6240234375,248.75 561.6240234375,295 591.6240234375,295"></path><path class="markmap-link" stroke="#929292" stroke-width="1" d="M531.6240234375,248.75C561.6240234375,248.75 561.6240234375,341.25 591.6240234375,341.25"></path><path class="markmap-link" stroke="#929292" stroke-width="1" d="M531.6240234375,248.75C561.6240234375,248.75 561.6240234375,387.5 591.6240234375,387.5"></path><path class="markmap-link" stroke="#929292" stroke-width="1" d="M327.5654296875,402.5C357.5654296875,402.5 357.5654296875,248.75 387.5654296875,248.75"></path><path class="markmap-link" stroke="#929292" stroke-width="1" d="M327.5654296875,402.5C357.5654296875,402.5 357.5654296875,430 387.5654296875,430"></path><path class="markmap-link" stroke="#929292" stroke-width="1" d="M327.5654296875,402.5C357.5654296875,402.5 357.5654296875,556.25 387.5654296875,556.25"></path><path class="markmap-link" stroke="#929292" stroke-width="1" d="M555.78515625,67.5C585.78515625,67.5 585.78515625,55 615.78515625,55"></path><path class="markmap-link" stroke="#929292" stroke-width="1" d="M555.78515625,67.5C585.78515625,67.5 585.78515625,80 615.78515625,80"></path><path class="markmap-link" stroke="#929292" stroke-width="1" d="M423.9775390625,67.5C453.9775390625,67.5 453.9775390625,67.5 483.9775390625,67.5"></path><path class="markmap-link" stroke="#929292" stroke-width="1" d="M353.73828125,-62.5C383.73828125,-62.5 383.73828125,-162.5 413.73828125,-162.5"></path><path class="markmap-link" stroke="#929292" stroke-width="1" d="M353.73828125,-62.5C383.73828125,-62.5 383.73828125,-137.5 413.73828125,-137.5"></path><path class="markmap-link" stroke="#929292" stroke-width="1" d="M353.73828125,-62.5C383.73828125,-62.5 383.73828125,-112.5 413.73828125,-112.5"></path><path class="markmap-link" stroke="#929292" stroke-width="1" d="M353.73828125,-62.5C383.73828125,-62.5 383.73828125,-87.5 413.73828125,-87.5"></path><path class="markmap-link" stroke="#929292" stroke-width="1" d="M353.73828125,-62.5C383.73828125,-62.5 383.73828125,-62.5 413.73828125,-62.5"></path><path class="markmap-link" stroke="#929292" stroke-width="1" d="M353.73828125,-62.5C383.73828125,-62.5 383.73828125,-37.5 413.73828125,-37.5"></path><path class="markmap-link" stroke="#929292" stroke-width="1" d="M353.73828125,-62.5C383.73828125,-62.5 383.73828125,-12.5 413.73828125,-12.5"></path><path class="markmap-link" stroke="#929292" stroke-width="1" d="M353.73828125,-62.5C383.73828125,-62.5 383.73828125,12.5 413.73828125,12.5"></path><path class="markmap-link" stroke="#929292" stroke-width="1" d="M353.73828125,-62.5C383.73828125,-62.5 383.73828125,37.5 413.73828125,37.5"></path><path class="markmap-link" stroke="#929292" stroke-width="1" d="M241.408203125,15C271.408203125,15 271.408203125,-62.5 301.408203125,-62.5"></path><path class="markmap-link" stroke="#929292" stroke-width="1" d="M241.408203125,15C271.408203125,15 271.408203125,5 301.408203125,5"></path><path class="markmap-link" stroke="#929292" stroke-width="1" d="M241.408203125,15C271.408203125,15 271.408203125,67.5 301.408203125,67.5"></path><path class="markmap-link" stroke="#929292" stroke-width="1" d="M241.408203125,15C271.408203125,15 271.408203125,92.5 301.408203125,92.5"></path><path class="markmap-link" stroke="#929292" stroke-width="1" d="M359.3046875,-267.5C389.3046875,-267.5 389.3046875,-342.5 419.3046875,-342.5"></path><path class="markmap-link" stroke="#929292" stroke-width="1" d="M359.3046875,-267.5C389.3046875,-267.5 389.3046875,-317.5 419.3046875,-317.5"></path><path class="markmap-link" stroke="#929292" stroke-width="1" d="M359.3046875,-267.5C389.3046875,-267.5 389.3046875,-292.5 419.3046875,-292.5"></path><path class="markmap-link" stroke="#929292" stroke-width="1" d="M359.3046875,-267.5C389.3046875,-267.5 389.3046875,-267.5 419.3046875,-267.5"></path><path class="markmap-link" stroke="#929292" stroke-width="1" d="M359.3046875,-267.5C389.3046875,-267.5 389.3046875,-242.5 419.3046875,-242.5"></path><path class="markmap-link" stroke="#929292" stroke-width="1" d="M359.3046875,-267.5C389.3046875,-267.5 389.3046875,-217.5 419.3046875,-217.5"></path><path class="markmap-link" stroke="#929292" stroke-width="1" d="M359.3046875,-267.5C389.3046875,-267.5 389.3046875,-192.5 419.3046875,-192.5"></path><path class="markmap-link" stroke="#929292" stroke-width="1" d="M249.7333984375,-320C279.7333984375,-320 279.7333984375,-372.5 309.7333984375,-372.5"></path><path class="markmap-link" stroke="#929292" stroke-width="1" d="M249.7333984375,-320C279.7333984375,-320 279.7333984375,-267.5 309.7333984375,-267.5"></path><path class="markmap-link" stroke="#929292" stroke-width="1" d="M236.3935546875,-402.5C266.3935546875,-402.5 266.3935546875,-402.5 296.3935546875,-402.5"></path><path class="markmap-link" stroke="#929292" stroke-width="1" d="M76.255859375,0C106.255859375,0 106.255859375,-402.5 136.255859375,-402.5"></path><path class="markmap-link" stroke="#929292" stroke-width="1" d="M76.255859375,0C106.255859375,0 106.255859375,-320 136.255859375,-320"></path><path class="markmap-link" stroke="#929292" stroke-width="1" d="M76.255859375,0C106.255859375,0 106.255859375,15 136.255859375,15"></path><path class="markmap-link" stroke="#929292" stroke-width="1" d="M76.255859375,0C106.255859375,0 106.255859375,402.5 136.255859375,402.5"></path><g class="markmap-node" transform="translate(735.1015625,665)"><rect class="markmap-node-rect" y="-10" x="-1" width="146.0537109375" height="20" fill="#dfdfdf" rx="10" ry="10" stroke="#929292" stroke-width="1"></rect><circle class="markmap-node-circle" cx="144.0537109375" stroke="#929292" r="4.5" style="display: none;"></circle><text class="markmap-node-text" x="10" dy="3" text-anchor="start" style="fill-opacity: 1;">Confirmation of Hypothesis</text></g><g class="markmap-node" transform="translate(735.1015625,640)"><rect class="markmap-node-rect" y="-10" x="-1" width="72.69921875" height="20" fill="#dfdfdf" rx="10" ry="10" stroke="#929292" stroke-width="1"></rect><circle class="markmap-node-circle" cx="70.69921875" stroke="#929292" r="4.5" style="display: none;"></circle><text class="markmap-node-text" x="10" dy="3" text-anchor="start" style="fill-opacity: 1;">Actionable</text></g><g class="markmap-node" transform="translate(735.1015625,615)"><rect class="markmap-node-rect" y="-10" x="-1" width="119.388671875" height="20" fill="#dfdfdf" rx="10" ry="10" stroke="#929292" stroke-width="1"></rect><circle class="markmap-node-circle" cx="117.388671875" stroke="#929292" r="4.5" style="display: none;"></circle><text class="markmap-node-text" x="10" dy="3" text-anchor="start" style="fill-opacity: 1;">Unexpected Patterns</text></g><g class="markmap-node" transform="translate(558.279296875,640)"><rect class="markmap-node-rect" y="-10" x="-1" width="118.822265625" height="20" fill="#dfdfdf" rx="10" ry="10" stroke="#929292" stroke-width="1"></rect><circle class="markmap-node-circle" cx="116.822265625" stroke="#929292" r="4.5"></circle><text class="markmap-node-text" x="10" dy="3" text-anchor="start" style="fill-opacity: 1;">Subjective Measures</text></g><g class="markmap-node" transform="translate(730.6484375,585)"><rect class="markmap-node-rect" y="-10" x="-1" width="69.359375" height="20" fill="#dfdfdf" rx="10" ry="10" stroke="#929292" stroke-width="1"></rect><circle class="markmap-node-circle" cx="67.359375" stroke="#929292" r="4.5" style="display: none;"></circle><text class="markmap-node-text" x="10" dy="3" text-anchor="start" style="fill-opacity: 1;">Coverage</text></g><g class="markmap-node" transform="translate(730.6484375,560)"><rect class="markmap-node-rect" y="-10" x="-1" width="67.123046875" height="20" fill="#dfdfdf" rx="10" ry="10" stroke="#929292" stroke-width="1"></rect><circle class="markmap-node-circle" cx="65.123046875" stroke="#929292" r="4.5" style="display: none;"></circle><text class="markmap-node-text" x="10" dy="3" text-anchor="start" style="fill-opacity: 1;">Accuracy</text></g><g class="markmap-node" transform="translate(730.6484375,535)"><rect class="markmap-node-rect" y="-10" x="-1" width="76.5908203125" height="20" fill="#dfdfdf" rx="10" ry="10" stroke="#929292" stroke-width="1"></rect><circle class="markmap-node-circle" cx="74.5908203125" stroke="#929292" r="4.5" style="display: none;"></circle><text class="markmap-node-text" x="10" dy="3" text-anchor="start" style="fill-opacity: 1;">Confidence</text></g><g class="markmap-node" transform="translate(730.6484375,510)"><rect class="markmap-node-rect" y="-10" x="-1" width="61.0244140625" height="20" fill="#dfdfdf" rx="10" ry="10" stroke="#929292" stroke-width="1"></rect><circle class="markmap-node-circle" cx="59.0244140625" stroke="#929292" r="4.5" style="display: none;"></circle><text class="markmap-node-text" x="10" dy="3" text-anchor="start" style="fill-opacity: 1;">Support</text></g><g class="markmap-node" transform="translate(558.279296875,547.5)"><rect class="markmap-node-rect" y="-10" x="-1" width="114.369140625" height="20" fill="#dfdfdf" rx="10" ry="10" stroke="#929292" stroke-width="1"></rect><circle class="markmap-node-circle" cx="112.369140625" stroke="#929292" r="4.5"></circle><text class="markmap-node-text" x="10" dy="3" text-anchor="start" style="fill-opacity: 1;">Objective Measures</text></g><g class="markmap-node" transform="translate(558.279296875,522.5)"><rect class="markmap-node-rect" y="-10" x="-1" width="82.689453125" height="20" fill="#dfdfdf" rx="10" ry="10" stroke="#929292" stroke-width="1"></rect><circle class="markmap-node-circle" cx="80.689453125" stroke="#929292" r="4.5" style="display: none;"></circle><text class="markmap-node-text" x="10" dy="3" text-anchor="start" style="fill-opacity: 1;">Novel/Useful</text></g><g class="markmap-node" transform="translate(558.279296875,497.5)"><rect class="markmap-node-rect" y="-10" x="-1" width="116.0537109375" height="20" fill="#dfdfdf" rx="10" ry="10" stroke="#929292" stroke-width="1"></rect><circle class="markmap-node-circle" cx="114.0537109375" stroke="#929292" r="4.5" style="display: none;"></circle><text class="markmap-node-text" x="10" dy="3" text-anchor="start" style="fill-opacity: 1;">Can Be Generalized</text></g><g class="markmap-node" transform="translate(558.279296875,472.5)"><rect class="markmap-node-rect" y="-10" x="-1" width="162.1865234375" height="20" fill="#dfdfdf" rx="10" ry="10" stroke="#929292" stroke-width="1"></rect><circle class="markmap-node-circle" cx="160.1865234375" stroke="#929292" r="4.5" style="display: none;"></circle><text class="markmap-node-text" x="10" dy="3" text-anchor="start" style="fill-opacity: 1;">Can Be Understood by Human</text></g><g class="markmap-node" transform="translate(387.5654296875,556.25)"><rect class="markmap-node-rect" y="-10" x="-1" width="112.7138671875" height="20" fill="#dfdfdf" rx="10" ry="10" stroke="#929292" stroke-width="1"></rect><circle class="markmap-node-circle" cx="110.7138671875" stroke="#929292" r="4.5"></circle><text class="markmap-node-text" x="10" dy="3" text-anchor="start" style="fill-opacity: 1;">Interesting Patterns</text></g><g class="markmap-node" transform="translate(519.9248046875,442.5)"><rect class="markmap-node-rect" y="-10" x="-1" width="69.90625" height="20" fill="#dfdfdf" rx="10" ry="10" stroke="#929292" stroke-width="1"></rect><circle class="markmap-node-circle" cx="67.90625" stroke="#929292" r="4.5" style="display: none;"></circle><text class="markmap-node-text" x="10" dy="3" text-anchor="start" style="fill-opacity: 1;">Predictive</text></g><g class="markmap-node" transform="translate(519.9248046875,417.5)"><rect class="markmap-node-rect" y="-10" x="-1" width="75.4580078125" height="20" fill="#dfdfdf" rx="10" ry="10" stroke="#929292" stroke-width="1"></rect><circle class="markmap-node-circle" cx="73.4580078125" stroke="#929292" r="4.5" style="display: none;"></circle><text class="markmap-node-text" x="10" dy="3" text-anchor="start" style="fill-opacity: 1;">Descriptive</text></g><g class="markmap-node" transform="translate(387.5654296875,430)"><rect class="markmap-node-rect" y="-10" x="-1" width="74.359375" height="20" fill="#dfdfdf" rx="10" ry="10" stroke="#929292" stroke-width="1"></rect><circle class="markmap-node-circle" cx="72.359375" stroke="#929292" r="4.5"></circle><text class="markmap-node-text" x="10" dy="3" text-anchor="start" style="fill-opacity: 1;">Categories</text></g><g class="markmap-node" transform="translate(864.0322265625,412.5)"><rect class="markmap-node-rect" y="-10" x="-1" width="131.0537109375" height="20" fill="#dfdfdf" rx="10" ry="10" stroke="#929292" stroke-width="1"></rect><circle class="markmap-node-circle" cx="129.0537109375" stroke="#929292" r="4.5" style="display: none;"></circle><text class="markmap-node-text" x="10" dy="3" text-anchor="start" style="fill-opacity: 1;">Density-based Methods</text></g><g class="markmap-node" transform="translate(864.0322265625,387.5)"><rect class="markmap-node-rect" y="-10" x="-1" width="111.5908203125" height="20" fill="#dfdfdf" rx="10" ry="10" stroke="#929292" stroke-width="1"></rect><circle class="markmap-node-circle" cx="109.5908203125" stroke="#929292" r="4.5" style="display: none;"></circle><text class="markmap-node-text" x="10" dy="3" text-anchor="start" style="fill-opacity: 1;">Distance Measures</text></g><g class="markmap-node" transform="translate(864.0322265625,362.5)"><rect class="markmap-node-rect" y="-10" x="-1" width="94.9111328125" height="20" fill="#dfdfdf" rx="10" ry="10" stroke="#929292" stroke-width="1"></rect><circle class="markmap-node-circle" cx="92.9111328125" stroke="#929292" r="4.5" style="display: none;"></circle><text class="markmap-node-text" x="10" dy="3" text-anchor="start" style="fill-opacity: 1;">Statistical Tests</text></g><g class="markmap-node" transform="translate(591.6240234375,387.5)"><rect class="markmap-node-rect" y="-10" x="-1" width="214.408203125" height="20" fill="#dfdfdf" rx="10" ry="10" stroke="#929292" stroke-width="1"></rect><circle class="markmap-node-circle" cx="212.408203125" stroke="#929292" r="4.5"></circle><text class="markmap-node-text" x="10" dy="3" text-anchor="start" style="fill-opacity: 1;">Outlier Analysis/Anomaly Mining: Data o…</text></g><g class="markmap-node" transform="translate(591.6240234375,341.25)"><rect class="markmap-node-rect" y="-10" x="-1" width="111.0341796875" height="20" fill="#dfdfdf" rx="10" ry="10" stroke="#929292" stroke-width="1"></rect><circle class="markmap-node-circle" cx="109.0341796875" stroke="#929292" r="4.5" style="display: none;"></circle><text class="markmap-node-text" x="10" dy="3" text-anchor="start" style="fill-opacity: 1;">Clustering Analysis</text></g><g class="markmap-node" transform="translate(807.357421875,332.5)"><rect class="markmap-node-rect" y="-10" x="-1" width="99.9111328125" height="20" fill="#dfdfdf" rx="10" ry="10" stroke="#929292" stroke-width="1"></rect><circle class="markmap-node-circle" cx="97.9111328125" stroke="#929292" r="4.5" style="display: none;"></circle><text class="markmap-node-text" x="10" dy="3" text-anchor="start" style="fill-opacity: 1;">Neural Networks</text></g><g class="markmap-node" transform="translate(807.357421875,307.5)"><rect class="markmap-node-rect" y="-10" x="-1" width="130.482421875" height="20" fill="#dfdfdf" rx="10" ry="10" stroke="#929292" stroke-width="1"></rect><circle class="markmap-node-circle" cx="128.482421875" stroke="#929292" r="4.5" style="display: none;"></circle><text class="markmap-node-text" x="10" dy="3" text-anchor="start" style="fill-opacity: 1;">Mathematical Formulae</text></g><g class="markmap-node" transform="translate(807.357421875,282.5)"><rect class="markmap-node-rect" y="-10" x="-1" width="92.318359375" height="20" fill="#dfdfdf" rx="10" ry="10" stroke="#929292" stroke-width="1"></rect><circle class="markmap-node-circle" cx="90.318359375" stroke="#929292" r="4.5" style="display: none;"></circle><text class="markmap-node-text" x="10" dy="3" text-anchor="start" style="fill-opacity: 1;">Decision Trees</text></g><g class="markmap-node" transform="translate(807.357421875,257.5)"><rect class="markmap-node-rect" y="-10" x="-1" width="113.255859375" height="20" fill="#dfdfdf" rx="10" ry="10" stroke="#929292" stroke-width="1"></rect><circle class="markmap-node-circle" cx="111.255859375" stroke="#929292" r="4.5" style="display: none;"></circle><text class="markmap-node-text" x="10" dy="3" text-anchor="start" style="fill-opacity: 1;">Classification Rules</text></g><g class="markmap-node" transform="translate(591.6240234375,295)"><rect class="markmap-node-rect" y="-10" x="-1" width="157.7333984375" height="20" fill="#dfdfdf" rx="10" ry="10" stroke="#929292" stroke-width="1"></rect><circle class="markmap-node-circle" cx="155.7333984375" stroke="#929292" r="4.5"></circle><text class="markmap-node-text" x="10" dy="3" text-anchor="start" style="fill-opacity: 1;">Classification and Regression</text></g><g class="markmap-node" transform="translate(865.1650390625,227.5)"><rect class="markmap-node-rect" y="-10" x="-1" width="157.728515625" height="20" fill="#dfdfdf" rx="10" ry="10" stroke="#929292" stroke-width="1"></rect><circle class="markmap-node-circle" cx="155.728515625" stroke="#929292" r="4.5" style="display: none;"></circle><text class="markmap-node-text" x="10" dy="3" text-anchor="start" style="fill-opacity: 1;">Minimum Support/Confidence</text></g><g class="markmap-node" transform="translate(865.1650390625,202.5)"><rect class="markmap-node-rect" y="-10" x="-1" width="209.6572265625" height="20" fill="#dfdfdf" rx="10" ry="10" stroke="#929292" stroke-width="1"></rect><circle class="markmap-node-circle" cx="207.6572265625" stroke="#929292" r="4.5" style="display: none;"></circle><text class="markmap-node-text" x="10" dy="3" text-anchor="start" style="fill-opacity: 1;">Association Rule: (A ^ B) =&gt; C [support…</text></g><g class="markmap-node" transform="translate(865.1650390625,177.5)"><rect class="markmap-node-rect" y="-10" x="-1" width="76.5908203125" height="20" fill="#dfdfdf" rx="10" ry="10" stroke="#929292" stroke-width="1"></rect><circle class="markmap-node-circle" cx="74.5908203125" stroke="#929292" r="4.5" style="display: none;"></circle><text class="markmap-node-text" x="10" dy="3" text-anchor="start" style="fill-opacity: 1;">Confidence</text></g><g class="markmap-node" transform="translate(865.1650390625,152.5)"><rect class="markmap-node-rect" y="-10" x="-1" width="61.0244140625" height="20" fill="#dfdfdf" rx="10" ry="10" stroke="#929292" stroke-width="1"></rect><circle class="markmap-node-circle" cx="59.0244140625" stroke="#929292" r="4.5" style="display: none;"></circle><text class="markmap-node-text" x="10" dy="3" text-anchor="start" style="fill-opacity: 1;">Support</text></g><g class="markmap-node" transform="translate(591.6240234375,190)"><rect class="markmap-node-rect" y="-10" x="-1" width="215.541015625" height="20" fill="#dfdfdf" rx="10" ry="10" stroke="#929292" stroke-width="1"></rect><circle class="markmap-node-circle" cx="213.541015625" stroke="#929292" r="4.5"></circle><text class="markmap-node-text" x="10" dy="3" text-anchor="start" style="fill-opacity: 1;">Frequent Patterns, Associations, and Co…</text></g><g class="markmap-node" transform="translate(836.2490234375,122.5)"><rect class="markmap-node-rect" y="-10" x="-1" width="210.51171875" height="20" fill="#dfdfdf" rx="10" ry="10" stroke="#929292" stroke-width="1"></rect><circle class="markmap-node-circle" cx="208.51171875" stroke="#929292" r="4.5" style="display: none;"></circle><text class="markmap-node-text" x="10" dy="3" text-anchor="start" style="fill-opacity: 1;">Discrimination: Comparision of features…</text></g><g class="markmap-node" transform="translate(836.2490234375,97.5)"><rect class="markmap-node-rect" y="-10" x="-1" width="214.9697265625" height="20" fill="#dfdfdf" rx="10" ry="10" stroke="#929292" stroke-width="1"></rect><circle class="markmap-node-circle" cx="212.9697265625" stroke="#929292" r="4.5" style="display: none;"></circle><text class="markmap-node-text" x="10" dy="3" text-anchor="start" style="fill-opacity: 1;">Characterization: Summary in general te…</text></g><g class="markmap-node" transform="translate(591.6240234375,110)"><rect class="markmap-node-rect" y="-10" x="-1" width="186.625" height="20" fill="#dfdfdf" rx="10" ry="10" stroke="#929292" stroke-width="1"></rect><circle class="markmap-node-circle" cx="184.625" stroke="#929292" r="4.5"></circle><text class="markmap-node-text" x="10" dy="3" text-anchor="start" style="fill-opacity: 1;">Characterization and  Discrimination</text></g><g class="markmap-node" transform="translate(387.5654296875,248.75)"><rect class="markmap-node-rect" y="-10" x="-1" width="146.05859375" height="20" fill="#dfdfdf" rx="10" ry="10" stroke="#929292" stroke-width="1"></rect><circle class="markmap-node-circle" cx="144.05859375" stroke="#929292" r="4.5"></circle><text class="markmap-node-text" x="10" dy="3" text-anchor="start" style="fill-opacity: 1;">Data Mining Functionalities</text></g><g class="markmap-node" transform="translate(136.255859375,402.5)"><rect class="markmap-node-rect" y="-10" x="-1" width="193.3095703125" height="20" fill="#dfdfdf" rx="10" ry="10" stroke="#929292" stroke-width="1"></rect><circle class="markmap-node-circle" cx="191.3095703125" stroke="#929292" r="4.5"></circle><text class="markmap-node-text" x="10" dy="3" text-anchor="start" style="fill-opacity: 1;">What Kinds of Patterns Can be Mined</text></g><g class="markmap-node" transform="translate(301.408203125,92.5)"><rect class="markmap-node-rect" y="-10" x="-1" width="109.5595703125" height="20" fill="#dfdfdf" rx="10" ry="10" stroke="#929292" stroke-width="1"></rect><circle class="markmap-node-circle" cx="107.5595703125" stroke="#929292" r="4.5" style="display: none;"></circle><text class="markmap-node-text" x="10" dy="3" text-anchor="start" style="fill-opacity: 1;">Transactional Data</text></g><g class="markmap-node" transform="translate(615.78515625,80)"><rect class="markmap-node-rect" y="-10" x="-1" width="57.6796875" height="20" fill="#dfdfdf" rx="10" ry="10" stroke="#929292" stroke-width="1"></rect><circle class="markmap-node-circle" cx="55.6796875" stroke="#929292" r="4.5" style="display: none;"></circle><text class="markmap-node-text" x="10" dy="3" text-anchor="start" style="fill-opacity: 1;">Roll-up</text></g><g class="markmap-node" transform="translate(615.78515625,55)"><rect class="markmap-node-rect" y="-10" x="-1" width="70.453125" height="20" fill="#dfdfdf" rx="10" ry="10" stroke="#929292" stroke-width="1"></rect><circle class="markmap-node-circle" cx="68.453125" stroke="#929292" r="4.5" style="display: none;"></circle><text class="markmap-node-text" x="10" dy="3" text-anchor="start" style="fill-opacity: 1;">Drill-down</text></g><g class="markmap-node" transform="translate(483.9775390625,67.5)"><rect class="markmap-node-rect" y="-10" x="-1" width="73.8076171875" height="20" fill="#dfdfdf" rx="10" ry="10" stroke="#929292" stroke-width="1"></rect><circle class="markmap-node-circle" cx="71.8076171875" stroke="#929292" r="4.5"></circle><text class="markmap-node-text" x="10" dy="3" text-anchor="start" style="fill-opacity: 1;">Data Cube</text></g><g class="markmap-node" transform="translate(301.408203125,67.5)"><rect class="markmap-node-rect" y="-10" x="-1" width="124.5693359375" height="20" fill="#dfdfdf" rx="10" ry="10" stroke="#929292" stroke-width="1"></rect><circle class="markmap-node-circle" cx="122.5693359375" stroke="#929292" r="4.5"></circle><text class="markmap-node-text" x="10" dy="3" text-anchor="start" style="fill-opacity: 1;">Data Warehouse Data</text></g><g class="markmap-node" transform="translate(301.408203125,5)"><rect class="markmap-node-rect" y="-10" x="-1" width="92.708984375" height="20" fill="#dfdfdf" rx="10" ry="10" stroke="#929292" stroke-width="1"></rect><circle class="markmap-node-circle" cx="90.708984375" stroke="#929292" r="4.5" style="display: none;"></circle><text class="markmap-node-text" x="10" dy="3" text-anchor="start" style="fill-opacity: 1;">Database Data</text></g><g class="markmap-node" transform="translate(413.73828125,37.5)"><rect class="markmap-node-rect" y="-10" x="-1" width="74.349609375" height="20" fill="#dfdfdf" rx="10" ry="10" stroke="#929292" stroke-width="1"></rect><circle class="markmap-node-circle" cx="72.349609375" stroke="#929292" r="4.5" style="display: none;"></circle><text class="markmap-node-text" x="10" dy="3" text-anchor="start" style="fill-opacity: 1;">Multimedia</text></g><g class="markmap-node" transform="translate(413.73828125,12.5)"><rect class="markmap-node-rect" y="-10" x="-1" width="68.2412109375" height="20" fill="#dfdfdf" rx="10" ry="10" stroke="#929292" stroke-width="1"></rect><circle class="markmap-node-circle" cx="66.2412109375" stroke="#929292" r="4.5" style="display: none;"></circle><text class="markmap-node-text" x="10" dy="3" text-anchor="start" style="fill-opacity: 1;">Text Data</text></g><g class="markmap-node" transform="translate(413.73828125,-12.5)"><rect class="markmap-node-rect" y="-10" x="-1" width="80.4775390625" height="20" fill="#dfdfdf" rx="10" ry="10" stroke="#929292" stroke-width="1"></rect><circle class="markmap-node-circle" cx="78.4775390625" stroke="#929292" r="4.5" style="display: none;"></circle><text class="markmap-node-text" x="10" dy="3" text-anchor="start" style="fill-opacity: 1;">Spatial Data</text></g><g class="markmap-node" transform="translate(413.73828125,-37.5)"><rect class="markmap-node-rect" y="-10" x="-1" width="128.2705078125" height="20" fill="#dfdfdf" rx="10" ry="10" stroke="#929292" stroke-width="1"></rect><circle class="markmap-node-circle" cx="126.2705078125" stroke="#929292" r="4.5" style="display: none;"></circle><text class="markmap-node-text" x="10" dy="3" text-anchor="start" style="fill-opacity: 1;">Graph/Networked Data</text></g><g class="markmap-node" transform="translate(413.73828125,-62.5)"><rect class="markmap-node-rect" y="-10" x="-1" width="94.9404296875" height="20" fill="#dfdfdf" rx="10" ry="10" stroke="#929292" stroke-width="1"></rect><circle class="markmap-node-circle" cx="92.9404296875" stroke="#929292" r="4.5" style="display: none;"></circle><text class="markmap-node-text" x="10" dy="3" text-anchor="start" style="fill-opacity: 1;">Sequence Data</text></g><g class="markmap-node" transform="translate(413.73828125,-87.5)"><rect class="markmap-node-rect" y="-10" x="-1" width="87.1328125" height="20" fill="#dfdfdf" rx="10" ry="10" stroke="#929292" stroke-width="1"></rect><circle class="markmap-node-circle" cx="85.1328125" stroke="#929292" r="4.5" style="display: none;"></circle><text class="markmap-node-text" x="10" dy="3" text-anchor="start" style="fill-opacity: 1;">Data Streams</text></g><g class="markmap-node" transform="translate(413.73828125,-112.5)"><rect class="markmap-node-rect" y="-10" x="-1" width="109.5595703125" height="20" fill="#dfdfdf" rx="10" ry="10" stroke="#929292" stroke-width="1"></rect><circle class="markmap-node-circle" cx="107.5595703125" stroke="#929292" r="4.5" style="display: none;"></circle><text class="markmap-node-text" x="10" dy="3" text-anchor="start" style="fill-opacity: 1;">Transactional Data</text></g><g class="markmap-node" transform="translate(413.73828125,-137.5)"><rect class="markmap-node-rect" y="-10" x="-1" width="124.5693359375" height="20" fill="#dfdfdf" rx="10" ry="10" stroke="#929292" stroke-width="1"></rect><circle class="markmap-node-circle" cx="122.5693359375" stroke="#929292" r="4.5" style="display: none;"></circle><text class="markmap-node-text" x="10" dy="3" text-anchor="start" style="fill-opacity: 1;">Data Warehouse Data</text></g><g class="markmap-node" transform="translate(413.73828125,-162.5)"><rect class="markmap-node-rect" y="-10" x="-1" width="92.708984375" height="20" fill="#dfdfdf" rx="10" ry="10" stroke="#929292" stroke-width="1"></rect><circle class="markmap-node-circle" cx="90.708984375" stroke="#929292" r="4.5" style="display: none;"></circle><text class="markmap-node-text" x="10" dy="3" text-anchor="start" style="fill-opacity: 1;">Database Data</text></g><g class="markmap-node" transform="translate(301.408203125,-62.5)"><rect class="markmap-node-rect" y="-10" x="-1" width="54.330078125" height="20" fill="#dfdfdf" rx="10" ry="10" stroke="#929292" stroke-width="1"></rect><circle class="markmap-node-circle" cx="52.330078125" stroke="#929292" r="4.5"></circle><text class="markmap-node-text" x="10" dy="3" text-anchor="start" style="fill-opacity: 1;">Forms</text></g><g class="markmap-node" transform="translate(136.255859375,15)"><rect class="markmap-node-rect" y="-10" x="-1" width="107.15234375" height="20" fill="#dfdfdf" rx="10" ry="10" stroke="#929292" stroke-width="1"></rect><circle class="markmap-node-circle" cx="105.15234375" stroke="#929292" r="4.5"></circle><text class="markmap-node-text" x="10" dy="3" text-anchor="start" style="fill-opacity: 1;">What Kind of Data</text></g><g class="markmap-node" transform="translate(419.3046875,-192.5)"><rect class="markmap-node-rect" y="-10" x="-1" width="134.408203125" height="20" fill="#dfdfdf" rx="10" ry="10" stroke="#929292" stroke-width="1"></rect><circle class="markmap-node-circle" cx="132.408203125" stroke="#929292" r="4.5" style="display: none;"></circle><text class="markmap-node-text" x="10" dy="3" text-anchor="start" style="fill-opacity: 1;">Knowledge Presentation</text></g><g class="markmap-node" transform="translate(419.3046875,-217.5)"><rect class="markmap-node-rect" y="-10" x="-1" width="107.71875" height="20" fill="#dfdfdf" rx="10" ry="10" stroke="#929292" stroke-width="1"></rect><circle class="markmap-node-circle" cx="105.71875" stroke="#929292" r="4.5" style="display: none;"></circle><text class="markmap-node-text" x="10" dy="3" text-anchor="start" style="fill-opacity: 1;">Pattern Evaluation</text></g><g class="markmap-node" transform="translate(419.3046875,-242.5)"><rect class="markmap-node-rect" y="-10" x="-1" width="79.359375" height="20" fill="#dfdfdf" rx="10" ry="10" stroke="#929292" stroke-width="1"></rect><circle class="markmap-node-circle" cx="77.359375" stroke="#929292" r="4.5" style="display: none;"></circle><text class="markmap-node-text" x="10" dy="3" text-anchor="start" style="fill-opacity: 1;">Data Mining</text></g><g class="markmap-node" transform="translate(419.3046875,-267.5)"><rect class="markmap-node-rect" y="-10" x="-1" width="116.7763671875" height="20" fill="#dfdfdf" rx="10" ry="10" stroke="#929292" stroke-width="1"></rect><circle class="markmap-node-circle" cx="114.7763671875" stroke="#929292" r="4.5" style="display: none;"></circle><text class="markmap-node-text" x="10" dy="3" text-anchor="start" style="fill-opacity: 1;">Data Transformation</text></g><g class="markmap-node" transform="translate(419.3046875,-292.5)"><rect class="markmap-node-rect" y="-10" x="-1" width="91.0390625" height="20" fill="#dfdfdf" rx="10" ry="10" stroke="#929292" stroke-width="1"></rect><circle class="markmap-node-circle" cx="89.0390625" stroke="#929292" r="4.5" style="display: none;"></circle><text class="markmap-node-text" x="10" dy="3" text-anchor="start" style="fill-opacity: 1;">Data Selection</text></g><g class="markmap-node" transform="translate(419.3046875,-317.5)"><rect class="markmap-node-rect" y="-10" x="-1" width="97.1572265625" height="20" fill="#dfdfdf" rx="10" ry="10" stroke="#929292" stroke-width="1"></rect><circle class="markmap-node-circle" cx="95.1572265625" stroke="#929292" r="4.5" style="display: none;"></circle><text class="markmap-node-text" x="10" dy="3" text-anchor="start" style="fill-opacity: 1;">Data Integration</text></g><g class="markmap-node" transform="translate(419.3046875,-342.5)"><rect class="markmap-node-rect" y="-10" x="-1" width="89.3740234375" height="20" fill="#dfdfdf" rx="10" ry="10" stroke="#929292" stroke-width="1"></rect><circle class="markmap-node-circle" cx="87.3740234375" stroke="#929292" r="4.5" style="display: none;"></circle><text class="markmap-node-text" x="10" dy="3" text-anchor="start" style="fill-opacity: 1;">Data Cleaning</text></g><g class="markmap-node" transform="translate(309.7333984375,-267.5)"><rect class="markmap-node-rect" y="-10" x="-1" width="51.5712890625" height="20" fill="#dfdfdf" rx="10" ry="10" stroke="#929292" stroke-width="1"></rect><circle class="markmap-node-circle" cx="49.5712890625" stroke="#929292" r="4.5"></circle><text class="markmap-node-text" x="10" dy="3" text-anchor="start" style="fill-opacity: 1;">Steps</text></g><g class="markmap-node" transform="translate(309.7333984375,-372.5)"><rect class="markmap-node-rect" y="-10" x="-1" width="137.73828125" height="20" fill="#dfdfdf" rx="10" ry="10" stroke="#929292" stroke-width="1"></rect><circle class="markmap-node-circle" cx="135.73828125" stroke="#929292" r="4.5" style="display: none;"></circle><text class="markmap-node-text" x="10" dy="3" text-anchor="start" style="fill-opacity: 1;">Searching for Knowledge</text></g><g class="markmap-node" transform="translate(136.255859375,-320)"><rect class="markmap-node-rect" y="-10" x="-1" width="115.4775390625" height="20" fill="#dfdfdf" rx="10" ry="10" stroke="#929292" stroke-width="1"></rect><circle class="markmap-node-circle" cx="113.4775390625" stroke="#929292" r="4.5"></circle><text class="markmap-node-text" x="10" dy="3" text-anchor="start" style="fill-opacity: 1;">What is Data Mining</text></g><g class="markmap-node" transform="translate(296.3935546875,-402.5)"><rect class="markmap-node-rect" y="-10" x="-1" width="140.2333984375" height="20" fill="#dfdfdf" rx="10" ry="10" stroke="#929292" stroke-width="1"></rect><circle class="markmap-node-circle" cx="138.2333984375" stroke="#929292" r="4.5" style="display: none;"></circle><text class="markmap-node-text" x="10" dy="3" text-anchor="start" style="fill-opacity: 1;">Information -&gt; Knowledge</text></g><g class="markmap-node" transform="translate(136.255859375,-402.5)"><rect class="markmap-node-rect" y="-10" x="-1" width="102.1376953125" height="20" fill="#dfdfdf" rx="10" ry="10" stroke="#929292" stroke-width="1"></rect><circle class="markmap-node-circle" cx="100.1376953125" stroke="#929292" r="4.5"></circle><text class="markmap-node-text" x="10" dy="3" text-anchor="start" style="fill-opacity: 1;">Why Data Mining</text></g><g class="markmap-node" transform="translate(0,0)"><rect class="markmap-node-rect" y="-10" x="-1" width="78.255859375" height="20" fill="#dfdfdf" rx="10" ry="10" stroke="#929292" stroke-width="1"></rect><circle class="markmap-node-circle" cx="76.255859375" stroke="#929292" r="4.5"></circle><text class="markmap-node-text" x="10" dy="3" text-anchor="start" style="fill-opacity: 1;">Introduction</text></g></g>
</svg>